<svg id="Слой_1" data-name="Слой 1" xmlns="http://www.w3.org/2000/svg" viewBox="0 0 388.84 248.59"><defs><style>.cls-1{fill-rule:evenodd;}</style></defs><title>logo</title><path d="M543.76,384v-3.39h1.93a2.76,2.76,0,0,1,1.08.19,1.52,1.52,0,0,1,.71.57,1.65,1.65,0,0,1-.7,2.42,2.54,2.54,0,0,1-1.08.22h-1.93Zm-1.66,4.52h1.66v-3h1.87a5,5,0,0,0,1.46-.21,3.59,3.59,0,0,0,1.2-.61,2.84,2.84,0,0,0,.81-1,3.43,3.43,0,0,0-.14-3.07,2.91,2.91,0,0,0-1.24-1.1,4.36,4.36,0,0,0-1.91-.4h-3.72v9.42Zm-9.85,0h1.67V380.6h3v-1.53h-7.65v1.53h3v7.89Zm-16,0h1.66v-4h4.5v4h1.66v-9.42h-1.66V383h-4.5v-3.92h-1.66v9.42Zm-12.46,0h7.06V387h-5.4v-2.53h4.73V383h-4.73v-2.45h5.33v-1.48h-7v9.42Zm-6.52,2h1.37L498.9,387h-1.17v-7.93h-1.64V387h-4.42v-7.93H490v9.42h7.28v2Zm-29.18-2h1.56l4.75-6.87v6.87h1.63v-9.42h-1.55L469.75,386v-6.88h-1.63v9.42Zm4-10.17a2.23,2.23,0,0,0,1-.23,1.92,1.92,0,0,0,.72-0.65,2.44,2.44,0,0,0,.37-1l-1-.19a1.42,1.42,0,0,1-.4.67,1.05,1.05,0,0,1-.72.25,1.07,1.07,0,0,1-.73-0.25,1.34,1.34,0,0,1-.39-0.67l-1,.19a2.48,2.48,0,0,0,.38,1,1.92,1.92,0,0,0,.73.65A2.23,2.23,0,0,0,472.14,378.33ZM454.3,388.5h1.56l4.75-6.87v6.87h1.63v-9.42H460.7L455.93,386v-6.88H454.3v9.42Zm-13.2,0h1.66v-2.73l1.47-1.51,3.22,4.24h2l-4.09-5.37,3.92-4.05h-2l-4.48,4.74v-4.74H441.1v9.42Zm-9,.16a5.51,5.51,0,0,0,1.56-.21,4.5,4.5,0,0,0,1.23-.57,6.17,6.17,0,0,0,1-.89l-1.06-1.08a6.33,6.33,0,0,1-.8.65,3.26,3.26,0,0,1-1.9.57,3,3,0,0,1-2.23-1,3.38,3.38,0,0,1-.65-1.07,3.82,3.82,0,0,1,0-2.61,3.38,3.38,0,0,1,.65-1.07,3,3,0,0,1,1-.71,3.05,3.05,0,0,1,1.25-.26,3.23,3.23,0,0,1,1,.15,3.56,3.56,0,0,1,.86.41,5.47,5.47,0,0,1,.78.62l1.06-1.23a5.84,5.84,0,0,0-1-.76,4.48,4.48,0,0,0-1.19-.52,5.77,5.77,0,0,0-1.53-.19,5.13,5.13,0,0,0-1.6.25,4.64,4.64,0,0,0-1.34.7,4.69,4.69,0,0,0-1,1.06,4.81,4.81,0,0,0-.66,1.34,5.14,5.14,0,0,0-.23,1.54,5.21,5.21,0,0,0,.23,1.56,4.91,4.91,0,0,0,.66,1.34,4.65,4.65,0,0,0,2.35,1.73A5,5,0,0,0,432.1,388.66Zm-16.83-.16h7.06V387h-5.4v-2.53h4.73V383h-4.73v-2.45h5.33v-1.48h-7v9.42Zm-7.52,0h1.66v-9.42h-1.66v4.21a4.23,4.23,0,0,1-.68.37,4.74,4.74,0,0,1-.83.27,3.87,3.87,0,0,1-.88.1,2,2,0,0,1-1-.22,1.41,1.41,0,0,1-.58-0.65,2.41,2.41,0,0,1-.19-1v-3.07H402v3.49a3.64,3.64,0,0,0,.23,1.33,2.47,2.47,0,0,0,.64.94,2.63,2.63,0,0,0,1,.55,4,4,0,0,0,1.26.18,4.3,4.3,0,0,0,1-.13,7.17,7.17,0,0,0,.93-0.31c0.29-.12.56-0.24,0.78-0.36v3.73Zm-19.35,0H390l4.75-6.87v6.87h1.63v-9.42H394.8L390,386v-6.88H388.4v9.42ZM376.31,387a8.5,8.5,0,0,0,.55-1.49,12.9,12.9,0,0,0,.35-1.81,16.74,16.74,0,0,0,.12-2.07v-1.08h3.33V387h-4.35Zm-2.68,3.5h1.45l0.16-2h6.64v2h1.37l0.23-3.5h-1.17v-7.94h-6.57v1.33q0,1.18-.08,2.14a16.6,16.6,0,0,1-.23,1.76,11.46,11.46,0,0,1-.38,1.46,9.18,9.18,0,0,1-.52,1.24h-0.92v3.5Zm-12.74-2h1.56l4.75-6.87v6.87h1.63v-9.42h-1.55L362.52,386v-6.88h-1.63v9.42ZM350.11,384v-3.39H352a2.76,2.76,0,0,1,1.08.19,1.52,1.52,0,0,1,.71.57,1.65,1.65,0,0,1-.7,2.42A2.54,2.54,0,0,1,352,384h-1.93Zm-1.66,4.52h1.66v-3H352a5,5,0,0,0,1.46-.21,3.6,3.6,0,0,0,1.2-.61,2.84,2.84,0,0,0,.81-1,3.43,3.43,0,0,0-.14-3.07,2.91,2.91,0,0,0-1.24-1.1,4.36,4.36,0,0,0-1.91-.4h-3.72v9.42Zm-10-1.33a2.58,2.58,0,0,1-1.15-.26,2.75,2.75,0,0,1-.9-0.72,3.41,3.41,0,0,1-.59-1.07,4.22,4.22,0,0,1-.21-1.32,4.3,4.3,0,0,1,.2-1.33,3.35,3.35,0,0,1,.58-1.07,2.69,2.69,0,0,1,.89-0.71,2.69,2.69,0,0,1,2.3,0,2.73,2.73,0,0,1,.9.72,3.33,3.33,0,0,1,.59,1.07,4.16,4.16,0,0,1,.21,1.32,4.28,4.28,0,0,1-.21,1.33,3.32,3.32,0,0,1-.58,1.07,2.67,2.67,0,0,1-.89.72A2.62,2.62,0,0,1,338.49,387.16Zm0,1.49a4.64,4.64,0,0,0,1.51-.25,4.32,4.32,0,0,0,1.26-.69,4.52,4.52,0,0,0,1-1.05,5,5,0,0,0,.61-1.34,5.44,5.44,0,0,0,.22-1.55,5.56,5.56,0,0,0-.21-1.56,4.89,4.89,0,0,0-.61-1.34,4.39,4.39,0,0,0-1-1,4.23,4.23,0,0,0-1.25-.68,4.54,4.54,0,0,0-1.5-.24,4.48,4.48,0,0,0-1.68.31,4.26,4.26,0,0,0-1.36.87,4.58,4.58,0,0,0-1,1.3A5.13,5.13,0,0,0,334,383h-1.56v-3.94h-1.66v9.42h1.66v-4H334a5.31,5.31,0,0,0,.48,1.66,4.57,4.57,0,0,0,1,1.32,4.25,4.25,0,0,0,1.36.87A4.55,4.55,0,0,0,338.46,388.66Z" transform="translate(-245.06 -141.93)"/><path class="cls-1" d="M465.19,287.18H413.95a3.09,3.09,0,0,1,0-6.18h51.24a3.09,3.09,0,0,1,0,6.18" transform="translate(-245.06 -141.93)"/><path class="cls-1" d="M464.48,304h-50c-1.79-1.32-3.6-3.95-3.6-9.06v-1a11.53,11.53,0,0,1,.79-4.32h55.6a11.53,11.53,0,0,1,.79,4.32v1c0,5.12-1.81,7.74-3.59,9.06" transform="translate(-245.06 -141.93)"/><path class="cls-1" d="M410.82,305.51h57.33a2.86,2.86,0,0,1,2.85,2.85v4.78H408v-4.78a2.86,2.86,0,0,1,2.85-2.85" transform="translate(-245.06 -141.93)"/><path class="cls-1" d="M439.48,229.95H426.22a3,3,0,0,1,0-6.07h26.52a3,3,0,0,1,0,6.07H439.48Z" transform="translate(-245.06 -141.93)"/><path class="cls-1" d="M432.82,232.09v5.08c0,12.66-9.34,30.93-16.2,41.69h45.74c-6.86-10.76-16.2-29-16.2-41.69v-5.08H432.82ZM429.76,201a22.31,22.31,0,0,1,3.06,10.8v10h13.33v-10a22.35,22.35,0,0,1,3.11-10.89A17.24,17.24,0,0,1,429.76,201Z" transform="translate(-245.06 -141.93)"/><path class="cls-1" d="M430,153.37a26.34,26.34,0,0,0,.72,7.35,23.78,23.78,0,0,0-4.2,2.15c-2.7-2.23-5.34-4.25-7.92-6a2.28,2.28,0,1,1,.55-1.49,2.3,2.3,0,0,1-.05.48,16.12,16.12,0,0,1,8.53,2.88,41.25,41.25,0,0,1-.46-12.23h-0.07a2.28,2.28,0,1,1,1.22-.35A41.32,41.32,0,0,1,435,156.36a16.07,16.07,0,0,1,5.34-7.32,2.27,2.27,0,1,1,.95.57c-1.07,2.94-2.06,6.11-3,9.49a23.92,23.92,0,0,0-4.67.68,26.36,26.36,0,0,0-3.66-6.42" transform="translate(-245.06 -141.93)"/><path class="cls-1" d="M455.83,184a21.67,21.67,0,0,1-13.08-12.39A21.61,21.61,0,0,1,423,184.35h0a16.6,16.6,0,1,0,32.82-.37m5.22-1.53V193.7a20.83,20.83,0,0,0,2.66,10.22,12.86,12.86,0,0,1-12.23-4,17.88,17.88,0,0,1-24.07,0,12.86,12.86,0,0,1-12.23,4,20.84,20.84,0,0,0,2.66-10.22V182.42a21.61,21.61,0,1,1,43.21,0v0Z" transform="translate(-245.06 -141.93)"/><path class="cls-1" d="M445.41,192.7a2,2,0,1,1,2-2,2,2,0,0,1-2,2m-12,0a2,2,0,1,0-2-2A2,2,0,0,0,433.43,192.7Z" transform="translate(-245.06 -141.93)"/><path class="cls-1" d="M442.18,191.82a4.6,4.6,0,1,0,6.51-6.51h0a4.6,4.6,0,0,0-6.51,0h0a4.6,4.6,0,0,0-1.29,2.53H438a4.59,4.59,0,0,0-1.29-2.53h0a4.6,4.6,0,0,0-6.51,0h0a4.6,4.6,0,0,0,0,6.51h0a4.6,4.6,0,0,0,7.82-2.67h2.85a4.58,4.58,0,0,0,1.31,2.68m3.25,0.08a3.33,3.33,0,0,1-2.36-5.69h0a3.33,3.33,0,0,1,4.71,0h0A3.33,3.33,0,0,1,445.43,191.9Zm-12,0a3.33,3.33,0,0,0,2.36-5.69h0a3.34,3.34,0,0,0-4.71,0h0a3.33,3.33,0,0,0,0,4.71h0A3.32,3.32,0,0,0,433.46,191.9Z" transform="translate(-245.06 -141.93)"/><path d="M583.19,348.86a4.84,4.84,0,0,1-.88,3.17q-0.88,1-3.38,1H571v-8h8a7.21,7.21,0,0,1,2.07.25,2.57,2.57,0,0,1,1.88,1.95,6.5,6.5,0,0,1,.18,1.62m6.39,0.2a13,13,0,0,0-.41-3.24,6.47,6.47,0,0,0-1.58-2.85,8.35,8.35,0,0,0-3.28-2,16.06,16.06,0,0,0-5.47-.78H565.21V367.5H571V358h9.34a11.14,11.14,0,0,0,4.3-.74,7.68,7.68,0,0,0,2.85-2,7.56,7.56,0,0,0,1.58-2.85A11.4,11.4,0,0,0,589.58,349.07Zm-35.46,4.79q0,4.75-1.7,7t-5.34,2.23q-3.73,0-5.43-2.23t-1.7-7.06q0-5,1.8-7.09a6.65,6.65,0,0,1,5.32-2.09q3.69,0,5.36,2.21T554.12,353.86Zm6.39,0.37q0-7-3.17-10.65T547,340q-7.09,0-10.28,3.48T533.56,354q0,6.43,3.4,10.05t10.48,3.62q6.59,0,9.83-3.54T560.51,354.23Zm-29.44-9.17v-4.87H508.34v4.87h8.31V367.5h5.82V345.06h8.6Zm-32.43,11.22H490l4.3-11.22ZM509,367.5l-11.3-27.32h-6.68l-11.3,27.32h6l2.54-6.35h11.88l2.54,6.35H509Zm-35.71-18.63a4.84,4.84,0,0,1-.88,3.17q-0.88,1-3.38,1h-7.9v-8h8a7.2,7.2,0,0,1,2.07.25,2.57,2.57,0,0,1,1.88,1.95A6.45,6.45,0,0,1,473.33,348.86Zm6.39,0.2a13,13,0,0,0-.41-3.24,6.47,6.47,0,0,0-1.58-2.85,8.36,8.36,0,0,0-3.28-2,16.06,16.06,0,0,0-5.47-.78H455.35V367.5h5.82V358h9.34a11.14,11.14,0,0,0,4.3-.74,7.67,7.67,0,0,0,2.85-2,7.57,7.57,0,0,0,1.58-2.85A11.4,11.4,0,0,0,479.72,349.07Zm-28.74-4v-4.87H428.25v4.87h8.31V367.5h5.82V345.06H451ZM424.49,367.5v-4.87h-8.36a10.38,10.38,0,0,1-3.5-.51,4.93,4.93,0,0,1-2.27-1.62,7.1,7.1,0,0,1-1.25-2.87,20,20,0,0,1-.39-4.26,15.48,15.48,0,0,1,.45-4.07,5.8,5.8,0,0,1,1.37-2.56,4.93,4.93,0,0,1,2.25-1.31,11.82,11.82,0,0,1,3.13-.37h8.56v-4.87h-9.26a16.84,16.84,0,0,0-5.9.92,10,10,0,0,0-4,2.68,10.68,10.68,0,0,0-2.29,4.32,21.52,21.52,0,0,0-.72,5.79,22.56,22.56,0,0,0,.72,6,10.27,10.27,0,0,0,2.25,4.24,9.27,9.27,0,0,0,3.93,2.5,18,18,0,0,0,5.8.82h9.5Zm-27.31,0V340.18h-7.41l-10.89,20.35V340.18h-5.53V367.5h7.13l11.18-20v20h5.53Zm-28.95-22.44v-4.87H360a30.32,30.32,0,0,0-4.61.35,10.08,10.08,0,0,0-4.05,1.51,8.36,8.36,0,0,0-2.89,3.44,14.16,14.16,0,0,0-1.11,6.12V367.5h5.82V349.89a6.37,6.37,0,0,1,.33-2.17,3.07,3.07,0,0,1,1.19-1.5,6.19,6.19,0,0,1,2.33-.88,20.07,20.07,0,0,1,3.73-.29h7.45ZM341.7,367.5v-4.87h-7.33a16.32,16.32,0,0,1-3.54-.33,6,6,0,0,1-2.4-1.06,4.65,4.65,0,0,1-1.43-1.93,10.22,10.22,0,0,1-.65-2.95H341.7v-4.87H326.34a20.17,20.17,0,0,1,.47-3,4.13,4.13,0,0,1,1.11-2,4.61,4.61,0,0,1,2.25-1.11,18.81,18.81,0,0,1,4-.33h7.58v-4.87h-9.83a14.58,14.58,0,0,0-4.75.76,10,10,0,0,0-3.85,2.38,11.19,11.19,0,0,0-2.58,4.2,18.08,18.08,0,0,0-.94,6.18,18.73,18.73,0,0,0,1.09,6.94,10,10,0,0,0,3,4.2,10.89,10.89,0,0,0,4.55,2.09,27.13,27.13,0,0,0,5.75.57h7.58Zm-31.57-18.63a4.84,4.84,0,0,1-.88,3.17q-0.88,1-3.38,1H298v-8h8a7.19,7.19,0,0,1,2.07.25,2.74,2.74,0,0,1,1.25.74,2.78,2.78,0,0,1,.63,1.21A6.49,6.49,0,0,1,310.13,348.86Zm6.39,0.2a13,13,0,0,0-.41-3.24,6.47,6.47,0,0,0-1.58-2.85,8.36,8.36,0,0,0-3.28-2,16.06,16.06,0,0,0-5.47-.78H292.15V367.5H298V358h9.34a11.14,11.14,0,0,0,4.3-.74,7.69,7.69,0,0,0,2.85-2,7.57,7.57,0,0,0,1.58-2.85A11.4,11.4,0,0,0,316.52,349.07Z" transform="translate(-245.06 -141.93)"/><path class="cls-1" d="M426.39,323.22l-181.32,2.14,181.32,2.14,4.36-2.14Zm13.1-.49a2.63,2.63,0,1,1-2.63,2.63A2.63,2.63,0,0,1,439.48,322.73Zm13.1,0.49,181.32,2.14L452.58,327.5l-4.36-2.14Z" transform="translate(-245.06 -141.93)"/><path class="cls-1" d="M446.9,278.86H416.45a2,2,0,0,1,0-4.09h46.07a2,2,0,0,1,0,4.09H446.9Z" transform="translate(-245.06 -141.93)"/></svg>